<?xml version="1.0" encoding="UTF-8"?>
<svg version="1.1" xmlns="http://www.w3.org/2000/svg" width="574" height="532">
<path d="M0 0 C189.42 0 378.84 0 574 0 C574 175.56 574 351.12 574 532 C384.58 532 195.16 532 0 532 C0 356.44 0 180.88 0 0 Z " fill="#FEFEFE" transform="translate(0,0)"/>
<path d="M0 0 C0.99 0.33 1.98 0.66 3 1 C3.6001383 14.99881799 4.06512762 28.9885173 4.2109375 43 C4.2252179 44.23484131 4.23949829 45.46968262 4.25421143 46.74194336 C4.31176593 51.79587066 4.36723036 56.84966171 4.40136719 61.90380859 C4.42875794 65.665314 4.47447835 69.42622207 4.5234375 73.1875 C4.5283168 74.90743164 4.5283168 74.90743164 4.53329468 76.66210938 C4.54986115 77.71591797 4.56642761 78.76972656 4.58349609 79.85546875 C4.59158295 80.77996826 4.5996698 81.70446777 4.60800171 82.65698242 C5.07454335 85.44555396 5.94971433 86.15213441 8 88 C8.25 90.625 8.25 90.625 8 93 C7.67 93.33 7.34 93.66 7 94 C6.87736612 95.56448383 6.82220478 97.13432772 6.79467773 98.70336914 C6.77473251 99.70433121 6.75478729 100.70529327 6.73423767 101.73658752 C6.71752518 102.8251152 6.70081268 103.91364288 6.68359375 105.03515625 C6.6524221 106.6977372 6.6524221 106.6977372 6.62062073 108.39390564 C6.55500377 111.95003808 6.49618404 115.50624703 6.4375 119.0625 C6.39432632 121.46680493 6.35071242 123.87110199 6.30664062 126.27539062 C6.19931008 132.18351185 6.09756669 138.09170991 6 144 C6.99 144 7.98 144 9 144 C9 147.3 9 150.6 9 154 C9.969375 153.979375 10.93875 153.95875 11.9375 153.9375 C15 154 15 154 16 155 C16.14115161 157.67058851 16.04247107 160.32432238 16 163 C17.65 163.33 19.3 163.66 21 164 C21 169.61 21 175.22 21 181 C20.34 181 19.68 181 19 181 C19 183.97 19 186.94 19 190 C15.7 190.66 12.4 191.32 9 192 C9.06058594 193.12664062 9.12117187 194.25328125 9.18359375 195.4140625 C9.67218384 205.20861234 10.0214957 214.995809 10.18359375 224.80078125 C10.6021862 249.53717274 11.57068888 274.19344568 12.98388672 298.89428711 C13.05029861 300.05677475 13.11671051 301.21926239 13.18513489 302.41697693 C13.31070196 304.59708189 13.43825251 306.77707387 13.56816101 308.95692444 C13.84190882 313.6453981 14.07935082 318.30083435 14 323 C15.65 323 17.3 323 19 323 C19 305.84 19 288.68 19 271 C24.61 271 30.22 271 36 271 C36 267.7 36 264.4 36 261 C44.58 261 53.16 261 62 261 C62 264.3 62 267.6 62 271 C67.61 271 73.22 271 79 271 C79 288.49 79 305.98 79 324 C82.96 324 86.92 324 91 324 C91 305.52 91 287.04 91 268 C92.98 268 94.96 268 97 268 C97 263.71 97 259.42 97 255 C97.95132813 255.00902344 98.90265625 255.01804687 99.8828125 255.02734375 C111.95289901 254.860483 123.24201247 252.34424972 134.89111328 249.43920898 C136.14134277 249.12798096 137.39157227 248.81675293 138.6796875 248.49609375 C139.80101074 248.20919678 140.92233398 247.9222998 142.07763672 247.62670898 C145 247 145 247 149 247 C149 281.32 149 315.64 149 351 C126 348 126 348 116.4375 346.4375 C109.89820946 345.38549454 103.39343936 344.5686802 96.796875 343.98046875 C95.84314499 343.89527985 94.88941498 343.81009094 93.90678406 343.72232056 C83.55322112 342.830617 73.19505771 342.2878631 62.8125 341.875 C61.78161255 341.83297455 60.7507251 341.7909491 59.68859863 341.74765015 C40.59852222 340.99350675 21.51744417 340.81155206 2.41521835 340.81241608 C0.29167277 340.81249838 -1.83186876 340.81114246 -3.95541382 340.80975342 C-29.91872417 340.80397073 -55.92108102 340.94155439 -81.75 343.8125 C-83.40175304 343.98823503 -85.05352758 344.16376812 -86.70532227 344.33911133 C-99.30576856 345.7023398 -111.830215 347.44273972 -124.32397461 349.58276367 C-127.87101377 350.13580536 -131.4378272 350.5547284 -135 351 C-135 333.51 -135 316.02 -135 298 C-111.2 291 -111.2 291 -106 291 C-106 280.77 -106 270.54 -106 260 C-97.42 260 -88.84 260 -80 260 C-80 241.52 -80 223.04 -80 204 C-78.02 204 -76.04 204 -74 204 C-74 200.37 -74 196.74 -74 193 C-60.14 193 -46.28 193 -32 193 C-32 196.3 -32 199.6 -32 203 C-30.35 203 -28.7 203 -27 203 C-25.30331793 204.69668207 -25.88031007 206.81132018 -25.87557983 209.07440186 C-25.88097275 210.16304535 -25.88097275 210.16304535 -25.88647461 211.27368164 C-25.88632858 212.03460617 -25.88618256 212.7955307 -25.8860321 213.57951355 C-25.88673138 216.10642298 -25.89452445 218.63325962 -25.90234375 221.16015625 C-25.90420788 222.9075059 -25.9056318 224.65485607 -25.90663147 226.40220642 C-25.91045707 231.01031934 -25.92028771 235.61840095 -25.93133545 240.22650146 C-25.94154866 244.92508521 -25.9461289 249.62367399 -25.95117188 254.32226562 C-25.96190995 263.54819308 -25.97950708 272.77408904 -26 282 C-20.72 282 -15.44 282 -10 282 C-9.92652344 279.81117188 -9.92652344 279.81117188 -9.8515625 277.578125 C-9.38822851 264.43638581 -8.76053855 251.31466118 -8 238.1875 C-7.089573 222.46316094 -6.4522632 206.74464262 -6 191 C-6.63808594 191.01160156 -7.27617187 191.02320313 -7.93359375 191.03515625 C-8.75988281 191.04417969 -9.58617187 191.05320312 -10.4375 191.0625 C-11.26121094 191.07410156 -12.08492188 191.08570313 -12.93359375 191.09765625 C-15 191 -15 191 -16 190 C-16.07179964 188.48071962 -16.08392007 186.95832518 -16.0625 185.4375 C-16.05347656 184.61121094 -16.04445313 183.78492188 -16.03515625 182.93359375 C-16.02355469 182.29550781 -16.01195312 181.65742188 -16 181 C-16.66 181 -17.32 181 -18 181 C-18 175.39 -18 169.78 -18 164 C-16.68 163.67 -15.36 163.34 -14 163 C-13.67 160.03 -13.34 157.06 -13 154 C-10.69 154 -8.38 154 -6 154 C-6 151.03 -6 148.06 -6 145 C-5.01 145 -4.02 145 -3 145 C-3.1172864 137.7550005 -3.24212235 130.51015987 -3.37231445 123.26538086 C-3.41573943 120.79861431 -3.45740872 118.33181622 -3.49731445 115.86499023 C-3.55483445 112.32786534 -3.61858075 108.79090034 -3.68359375 105.25390625 C-3.70866249 103.58830406 -3.70866249 103.58830406 -3.73423767 101.88905334 C-3.75418289 100.86807053 -3.77412811 99.84708771 -3.79467773 98.79516602 C-3.81022202 97.89137711 -3.8257663 96.9875882 -3.84178162 96.05641174 C-3.77501457 94.00805899 -3.77501457 94.00805899 -5 93 C-5.04080783 91.00041636 -5.04254356 88.99954746 -5 87 C-4.01 86.67 -3.02 86.34 -2 86 C-2.00523682 84.89527344 -2.01047363 83.79054688 -2.01586914 82.65234375 C-2.09705848 63.80588298 -2.16702863 44.96398624 -1.5625 26.125 C-1.52326416 24.86429688 -1.48402832 23.60359375 -1.44360352 22.3046875 C-1.18075563 14.84606352 -0.6946648 7.43078252 0 0 Z " fill="#252122" transform="translate(300,83)"/>
<path d="M0 0 C1.89780703 -0.00322979 3.79561384 -0.006595 5.69342041 -0.01008606 C9.64994888 -0.01602378 13.60645569 -0.01793174 17.56298828 -0.01733398 C21.55164154 -0.01725309 25.54017906 -0.02414588 29.52880859 -0.0378418 C51.65525243 -0.1126318 73.59354396 0.08717397 95.65673828 1.91348267 C100.58764549 2.30916045 105.52379713 2.60834786 110.4609375 2.9140625 C113.09550631 3.08607691 115.72988668 3.26077861 118.36425781 3.43579102 C120.10788199 3.55007042 121.85170578 3.66133949 123.59570312 3.76977539 C139.19802073 4.7442027 154.66016939 6.25702452 169.828125 10.16796875 C171.8451903 10.46556855 173.866222 10.73775377 175.890625 10.98046875 C185.04773382 12.33905849 195.32672169 14.25984175 201.828125 21.16796875 C200.70092041 21.04099609 199.57371582 20.91402344 198.41235352 20.78320312 C186.2120992 19.43762487 174.01178201 18.47785536 161.765625 17.66796875 C157.96342646 17.41184455 154.16138854 17.15338564 150.359375 16.89453125 C148.97769386 16.80088791 148.97769386 16.80088791 147.56809998 16.70535278 C141.45342994 16.28808414 135.34411952 15.83075996 129.23632812 15.32177734 C105.79210705 13.4384557 82.36791833 12.99928759 58.85546875 12.96484375 C57.50269614 12.96208982 56.14992374 12.95923217 54.79715157 12.95627594 C48.40751148 12.94268265 42.01788352 12.93298431 35.62823004 12.92907405 C29.1660679 12.925089 22.70405535 12.91299889 16.24194336 12.88671875 C-41.8086756 12.65585016 -100.7109804 13.15574835 -158.171875 22.16796875 C-154.88380379 18.25440327 -151.21142218 16.70341157 -146.484375 15.10546875 C-145.72382813 14.84580322 -144.96328125 14.5861377 -144.1796875 14.31860352 C-137.19609804 12.02657214 -130.17616459 10.64647856 -122.9140625 9.58935547 C-119.76094863 9.10482248 -116.6249556 8.54438109 -113.484375 7.984375 C-89.57840505 3.87604187 -65.58106779 2.53272658 -41.37753296 1.33882141 C-38.9734533 1.21069065 -36.57206562 1.06877374 -34.16958618 0.91545105 C-22.77220759 0.20385479 -11.41777348 0.00468059 0 0 Z " fill="#2A2627" transform="translate(284.171875,427.83203125)"/>
<path d="M0 0 C0.33 0 0.66 0 1 0 C1 34.98 1 69.96 1 106 C3.31 106.33 5.62 106.66 8 107 C8.33 107.66 8.66 108.32 9 109 C4.54140177 108.5753716 0.26949464 108.08283335 -4.08984375 107.0546875 C-9.56001364 105.81303055 -15.05544988 105.13157634 -20.625 104.5 C-21.74745117 104.37181885 -22.86990234 104.2436377 -24.02636719 104.11157227 C-35.70070386 102.83604289 -47.40168971 102.0686571 -59.12580872 101.42115784 C-63.47497554 101.17393545 -67.81449374 100.85955804 -72.15649414 100.50756836 C-93.4532683 98.83989737 -114.68095981 98.64192425 -136.03466034 98.68234634 C-138.97462682 98.68756591 -141.9145827 98.68949568 -144.85455322 98.69100952 C-168.72157685 98.71236817 -192.541747 98.95192612 -216.375 100.3125 C-217.42017792 100.37126312 -218.46535583 100.43002625 -219.54220581 100.49057007 C-231.1381948 101.16839724 -242.67991572 102.21878574 -254.2265625 103.48046875 C-255.32277924 103.60013504 -256.41899597 103.71980133 -257.5484314 103.84309387 C-263.8559082 104.56098998 -270.09056561 105.47433797 -276.33578491 106.61592102 C-278.93268083 106.99029512 -281.38061401 107.06874187 -284 107 C-285.26372044 104.47255912 -285.12022795 102.73619692 -285.11352539 99.90771484 C-285.11344986 98.84676605 -285.11337433 97.78581726 -285.11329651 96.69271851 C-285.10813522 95.54373077 -285.10297394 94.39474304 -285.09765625 93.2109375 C-285.0962413 92.03737701 -285.09482635 90.86381653 -285.09336853 89.6546936 C-285.08775689 85.89477015 -285.07520238 82.13490555 -285.0625 78.375 C-285.0574865 75.83073002 -285.05292333 73.28645912 -285.04882812 70.7421875 C-285.03778368 64.49477147 -285.02103418 58.24738994 -285 52 C-284.67 52 -284.34 52 -284 52 C-284 69.16 -284 86.32 -284 104 C-280.04 103.01 -276.08 102.02 -272 101 C-269.01166619 100.5004619 -266.0716926 100.04790472 -263.0703125 99.68359375 C-261.88693047 99.53142143 -261.88693047 99.53142143 -260.67964172 99.37617493 C-258.16237167 99.05515148 -255.64390581 98.74540461 -253.125 98.4375 C-251.3646608 98.2184559 -249.60432555 97.99938013 -247.84399414 97.78027344 C-214.833221 93.7043592 -181.98925975 92.78766497 -148.75 92.8125 C-147.67689135 92.81267939 -147.67689135 92.81267939 -146.58210373 92.8128624 C-103.87412684 92.8218386 -61.26572475 93.53176705 -19.06347656 100.66357422 C-14.61793368 101.38836813 -10.15129654 101.97022664 -5.6875 102.5703125 C-3 103 -3 103 0 104 C0 69.68 0 35.36 0 0 Z " fill="#E5E5E5" transform="translate(449,330)"/>
<path d="M0 0 C0.33 0 0.66 0 1 0 C1 34.98 1 69.96 1 106 C3.31 106.33 5.62 106.66 8 107 C8.495 107.99 8.495 107.99 9 109 C2.85845775 108.41509121 -3.00679849 107.45933748 -9 106 C-8.505 105.01 -8.505 105.01 -8 104 C-8.99 103.34 -9.98 102.68 -11 102 C-3.375 102.875 -3.375 102.875 0 104 C0 69.68 0 35.36 0 0 Z " fill="#AAA9AA" transform="translate(449,330)"/>
<path d="M0 0 C0.33 0 0.66 0 1 0 C1 17.16 1 34.32 1 52 C4.96 51.01 8.92 50.02 13 49 C18.25 48.8125 18.25 48.8125 22 49 C22 49.33 22 49.66 22 50 C23.65 50.33 25.3 50.66 27 51 C27 51.33 27 51.66 27 52 C23.60500696 52.50581854 20.20888518 53.00362244 16.8125 53.5 C15.85279297 53.64308594 14.89308594 53.78617187 13.90429688 53.93359375 C12.97294922 54.06894531 12.04160156 54.20429688 11.08203125 54.34375 C10.22843018 54.46943359 9.3748291 54.59511719 8.49536133 54.72460938 C5.97530325 55.00272556 3.53314218 55.047608 1 55 C-0.26372044 52.47255912 -0.12022795 50.73619692 -0.11352539 47.90771484 C-0.11344986 46.84676605 -0.11337433 45.78581726 -0.11329651 44.69271851 C-0.10813522 43.54373077 -0.10297394 42.39474304 -0.09765625 41.2109375 C-0.0962413 40.03737701 -0.09482635 38.86381653 -0.09336853 37.6546936 C-0.08775689 33.89477015 -0.07520238 30.13490555 -0.0625 26.375 C-0.0574865 23.83073002 -0.05292333 21.28645912 -0.04882812 18.7421875 C-0.03778368 12.49477147 -0.02103418 6.24738994 0 0 Z " fill="#C3C1C2" transform="translate(164,382)"/>
<path d="M0 0 C3.3973045 0.44782854 6.79249102 0.91011398 10.1875 1.375 C11.14720703 1.50132812 12.10691406 1.62765625 13.09570312 1.7578125 C14.49272461 1.95117188 14.49272461 1.95117188 15.91796875 2.1484375 C17.19837036 2.32125244 17.19837036 2.32125244 18.50463867 2.49755859 C21.17572017 3.03538128 23.5048377 3.91752552 26 5 C26 5.33 26 5.66 26 6 C16.18003888 6.34057669 6.70953473 5.28846906 -3 4 C-1.68 3.67 -0.36 3.34 1 3 C0.67 2.01 0.34 1.02 0 0 Z " fill="#ECEBEB" transform="translate(417,429)"/>
<path d="M0 0 C8.57142857 0.85714286 8.57142857 0.85714286 12 3 C12 3.33 12 3.66 12 4 C13.134375 4.12375 14.26875 4.2475 15.4375 4.375 C16.613125 4.58125 17.78875 4.7875 19 5 C19.33 5.66 19.66 6.32 20 7 C13.85845775 6.41509121 7.99320151 5.45933748 2 4 C2.33 3.34 2.66 2.68 3 2 C2.01 1.34 1.02 0.68 0 0 Z " fill="#C6C6C6" transform="translate(438,432)"/>
<path d="M0 0 C-0.33 1.32 -0.66 2.64 -1 4 C-4.96 4 -8.92 4 -13 4 C-12.67 3.01 -12.34 2.02 -12 1 C-7.93631321 0.22596442 -4.13574827 -0.0984702 0 0 Z " fill="#E8E7E8" transform="translate(198,429)"/>
<path d="M0 0 C0 1.32 0 2.64 0 4 C-2.64 4.33 -5.28 4.66 -8 5 C-3.16129032 0 -3.16129032 0 0 0 Z " fill="#585758" transform="translate(134,445)"/>
<path d="M0 0 C2.97 0 5.94 0 9 0 C6 3 6 3 3.3125 3.1875 C2.1678125 3.0946875 2.1678125 3.0946875 1 3 C0.67 2.01 0.34 1.02 0 0 Z " fill="#E2E1E2" transform="translate(164,434)"/>
</svg>
